<svg xmlns="http://www.w3.org/2000/svg" xmlns:xlink="http://www.w3.org/1999/xlink" version="1.1" width="256" height="256" viewBox="0 0 256 256" xml:space="preserve">

<defs>
</defs>
<g style="stroke: none; stroke-width: 0; stroke-dasharray: none; stroke-linecap: butt; stroke-linejoin: miter; stroke-miterlimit: 10; fill: none; fill-rule: nonzero; opacity: 1;" transform="translate(1.4065934065934016 1.4065934065934016) scale(2.81 2.81)" >
	<path d="M 80.296 4.413 H 9.704 C 4.353 4.413 0 8.766 0 14.117 v 45.19 c 0 5.351 4.353 9.703 9.704 9.703 h 12.089 v 14.577 c 0 0.797 0.473 1.518 1.204 1.835 c 0.256 0.111 0.527 0.165 0.796 0.165 c 0.498 0 0.989 -0.186 1.366 -0.539 L 42.311 69.01 h 37.985 c 5.351 0 9.704 -4.353 9.704 -9.703 v -45.19 C 90 8.766 85.646 4.413 80.296 4.413 z M 86 59.307 c 0 3.145 -2.559 5.703 -5.704 5.703 H 41.521 c -0.507 0 -0.996 0.192 -1.366 0.539 l -14.363 13.43 V 67.01 c 0 -1.104 -0.896 -2 -2 -2 H 9.704 C 6.559 65.01 4 62.451 4 59.307 v -45.19 c 0 -3.145 2.559 -5.704 5.704 -5.704 h 70.592 c 3.146 0 5.704 2.559 5.704 5.704 V 59.307 z" style="stroke: none; stroke-width: 1; stroke-dasharray: none; stroke-linecap: butt; stroke-linejoin: miter; stroke-miterlimit: 10; fill: rgb(255,194,0); fill-rule: nonzero; opacity: 1;" transform=" matrix(1 0 0 1 0 0) " stroke-linecap="round" />
	<path d="M 67.431 33.248 V 19.616 c 0 -1.104 -0.896 -2 -2 -2 s -2 0.896 -2 2 v 6.617 l -4.762 -7.672 c -0.471 -0.76 -1.387 -1.114 -2.248 -0.869 c -0.858 0.245 -1.451 1.03 -1.451 1.923 v 13.632 c 0 1.104 0.896 2 2 2 s 2 -0.896 2 -2 v -6.617 l 4.762 7.672 c 0.371 0.599 1.021 0.945 1.699 0.945 c 0.183 0 0.366 -0.025 0.549 -0.077 C 66.838 34.926 67.431 34.142 67.431 33.248 z" style="stroke: none; stroke-width: 1; stroke-dasharray: none; stroke-linecap: butt; stroke-linejoin: miter; stroke-miterlimit: 10; fill: rgb(255,194,0); fill-rule: nonzero; opacity: 1;" transform=" matrix(1 0 0 1 0 0) " stroke-linecap="round" />
	<path d="M 51.112 22.555 c 0 -2.724 -2.216 -4.939 -4.939 -4.939 H 43.59 c -2.723 0 -4.939 2.216 -4.939 4.939 v 10.693 c 0 1.104 0.896 2 2 2 s 2 -0.896 2 -2 v -4.816 h 4.461 v 4.816 c 0 1.104 0.896 2 2 2 s 2 -0.896 2 -2 V 22.555 z M 42.651 24.432 v -1.876 c 0 -0.509 0.43 -0.939 0.939 -0.939 h 2.583 c 0.509 0 0.939 0.43 0.939 0.939 v 1.876 H 42.651 z" style="stroke: none; stroke-width: 1; stroke-dasharray: none; stroke-linecap: butt; stroke-linejoin: miter; stroke-miterlimit: 10; fill: rgb(255,194,0); fill-rule: nonzero; opacity: 1;" transform=" matrix(1 0 0 1 0 0) " stroke-linecap="round" />
	<path d="M 17.395 17.616 h -8.6 c -1.104 0 -2 0.896 -2 2 s 0.896 2 2 2 h 2.3 v 11.632 c 0 1.104 0.896 2 2 2 s 2 -0.896 2 -2 V 21.616 h 2.3 c 1.104 0 2 -0.896 2 -2 S 18.5 17.616 17.395 17.616 z" style="stroke: none; stroke-width: 1; stroke-dasharray: none; stroke-linecap: butt; stroke-linejoin: miter; stroke-miterlimit: 10; fill: rgb(255,194,0); fill-rule: nonzero; opacity: 1;" transform=" matrix(1 0 0 1 0 0) " stroke-linecap="round" />
	<path d="M 32.695 17.616 c -1.104 0 -2 0.896 -2 2 v 4.816 h -4.266 v -4.816 c 0 -1.104 -0.896 -2 -2 -2 s -2 0.896 -2 2 v 13.632 c 0 1.104 0.896 2 2 2 s 2 -0.896 2 -2 v -4.816 h 4.266 v 4.816 c 0 1.104 0.896 2 2 2 s 2 -0.896 2 -2 V 19.616 C 34.695 18.511 33.8 17.616 32.695 17.616 z" style="stroke: none; stroke-width: 1; stroke-dasharray: none; stroke-linecap: butt; stroke-linejoin: miter; stroke-miterlimit: 10; fill: rgb(255,194,0); fill-rule: nonzero; opacity: 1;" transform=" matrix(1 0 0 1 0 0) " stroke-linecap="round" />
	<path d="M 82.673 18.258 c -0.751 -0.812 -2.018 -0.861 -2.827 -0.11 l -4.012 3.71 v -2.242 c 0 -1.104 -0.896 -2 -2 -2 s -2 0.896 -2 2 v 13.632 c 0 1.104 0.896 2 2 2 s 2 -0.896 2 -2 v -2.243 l 4 3.699 c 0.385 0.356 0.871 0.532 1.357 0.532 c 0.538 0 1.074 -0.216 1.469 -0.642 c 0.75 -0.811 0.7 -2.076 -0.111 -2.826 l -5.77 -5.335 l 5.783 -5.348 C 83.373 20.334 83.423 19.069 82.673 18.258 z" style="stroke: none; stroke-width: 1; stroke-dasharray: none; stroke-linecap: butt; stroke-linejoin: miter; stroke-miterlimit: 10; fill: rgb(255,194,0); fill-rule: nonzero; opacity: 1;" transform=" matrix(1 0 0 1 0 0) " stroke-linecap="round" />
	<path d="M 32.405 39.51 c -0.888 -0.659 -2.141 -0.474 -2.798 0.414 l -3.336 4.495 l -3.337 -4.495 c -0.659 -0.888 -1.912 -1.073 -2.798 -0.414 c -0.887 0.658 -1.072 1.911 -0.414 2.798 l 4.549 6.129 v 6.312 c 0 1.104 0.896 2 2 2 s 2 -0.896 2 -2 v -6.311 l 4.548 -6.129 C 33.478 41.42 33.292 40.168 32.405 39.51 z" style="stroke: none; stroke-width: 1; stroke-dasharray: none; stroke-linecap: butt; stroke-linejoin: miter; stroke-miterlimit: 10; fill: rgb(255,194,0); fill-rule: nonzero; opacity: 1;" transform=" matrix(1 0 0 1 0 0) " stroke-linecap="round" />
	<path d="M 42.837 39.116 h -2.583 c -2.724 0 -4.939 2.216 -4.939 4.939 v 7.753 c 0 2.724 2.216 4.939 4.939 4.939 h 2.583 c 2.724 0 4.94 -2.216 4.94 -4.939 v -7.753 C 47.777 41.332 45.561 39.116 42.837 39.116 z M 43.777 51.809 c 0 0.509 -0.43 0.939 -0.939 0.939 h -2.583 c -0.509 0 -0.939 -0.431 -0.939 -0.939 v -7.753 c 0 -0.509 0.43 -0.939 0.939 -0.939 h 2.583 c 0.509 0 0.939 0.43 0.939 0.939 V 51.809 z" style="stroke: none; stroke-width: 1; stroke-dasharray: none; stroke-linecap: butt; stroke-linejoin: miter; stroke-miterlimit: 10; fill: rgb(255,194,0); fill-rule: nonzero; opacity: 1;" transform=" matrix(1 0 0 1 0 0) " stroke-linecap="round" />
	<path d="M 61.052 39.116 c -1.104 0 -2 0.896 -2 2 v 10.693 c 0 0.509 -0.43 0.939 -0.938 0.939 H 55.53 c -0.509 0 -0.939 -0.431 -0.939 -0.939 V 41.116 c 0 -1.104 -0.896 -2 -2 -2 s -2 0.896 -2 2 v 10.693 c 0 2.724 2.216 4.939 4.939 4.939 h 2.583 c 2.723 0 4.938 -2.216 4.938 -4.939 V 41.116 C 63.052 40.011 62.156 39.116 61.052 39.116 z" style="stroke: none; stroke-width: 1; stroke-dasharray: none; stroke-linecap: butt; stroke-linejoin: miter; stroke-miterlimit: 10; fill: rgb(255,194,0); fill-rule: nonzero; opacity: 1;" transform=" matrix(1 0 0 1 0 0) " stroke-linecap="round" />
	<path d="M 68.672 39.116 c -1.104 0 -2 0.896 -2 2 v 8.106 c 0 1.104 0.896 2 2 2 s 2 -0.896 2 -2 v -8.106 C 70.672 40.011 69.776 39.116 68.672 39.116 z" style="stroke: none; stroke-width: 1; stroke-dasharray: none; stroke-linecap: butt; stroke-linejoin: miter; stroke-miterlimit: 10; fill: rgb(255,194,0); fill-rule: nonzero; opacity: 1;" transform=" matrix(1 0 0 1 0 0) " stroke-linecap="round" />
	<path d="M 68.672 52.748 c -1.104 0 -2 0.896 -2 2 v 0.154 c 0 1.104 0.896 2 2 2 s 2 -0.896 2 -2 v -0.154 C 70.672 53.644 69.776 52.748 68.672 52.748 z" style="stroke: none; stroke-width: 1; stroke-dasharray: none; stroke-linecap: butt; stroke-linejoin: miter; stroke-miterlimit: 10; fill: rgb(255,194,0); fill-rule: nonzero; opacity: 1;" transform=" matrix(1 0 0 1 0 0) " stroke-linecap="round" />
</g>
</svg>